<?xml version="1.0" encoding="iso-8859-1"?>
<!-- Generator: Adobe Illustrator 19.0.0, SVG Export Plug-In . SVG Version: 6.00 Build 0)  -->
<svg version="1.1" id="Layer_1" xmlns="http://www.w3.org/2000/svg" xmlns:xlink="http://www.w3.org/1999/xlink" x="0px" y="0px"
	 viewBox="0 0 329.992 329.992" style="fill: white;" xml:space="preserve">
<g id="XMLID_2_">
	<path id="XMLID_4_" d="M179.996,24.616V15c0-8.284-6.716-15-15-15s-15,6.716-15,15v9.616
		C89.641,37.014,46.152,122.529,46.152,199.61c0,40.069,11.988,73.554,34.671,96.833c21.079,21.635,50.972,33.549,84.173,33.549
		s63.094-11.914,84.172-33.549c22.683-23.279,34.672-56.764,34.672-96.833C283.84,122.529,240.352,37.014,179.996,24.616z
		 M164.996,260.764c-27.357,0-49.614-22.257-49.614-49.614s22.257-49.614,49.614-49.614s49.614,22.257,49.614,49.614
		S192.353,260.764,164.996,260.764z"/>
</g>
<g>
</g>
<g>
</g>
<g>
</g>
<g>
</g>
<g>
</g>
<g>
</g>
<g>
</g>
<g>
</g>
<g>
</g>
<g>
</g>
<g>
</g>
<g>
</g>
<g>
</g>
<g>
</g>
<g>
</g>
</svg>
